<!DOCTYPE svg PUBLIC "-//W3C//DTD SVG 1.1//EN" "http://www.w3.org/Graphics/SVG/1.1/DTD/svg11.dtd">
<!-- Uploaded to: SVG Repo, www.svgrepo.com, Transformed by: SVG Repo Mixer Tools -->
<svg version="1.1" id="_x34_" xmlns="http://www.w3.org/2000/svg" xmlns:xlink="http://www.w3.org/1999/xlink" viewBox="0 0 512 512" xml:space="preserve" width="800px" height="800px" fill="#000000">
<g id="SVGRepo_bgCarrier" stroke-width="0"/>
<g id="SVGRepo_tracerCarrier" stroke-linecap="round" stroke-linejoin="round"/>
<g id="SVGRepo_iconCarrier"> <g> <g> <polygon style="fill:#405362;" points="511.973,138.729 511.973,414.248 0,414.248 0,138.729 112.373,57.96 113.763,56.935 126.566,47.716 154.953,49.252 186.339,50.862 255.986,54.595 325.635,50.862 357.02,49.252 385.406,47.716 392.649,52.91 398.209,56.935 399.599,57.96 498.146,128.778 "/> <g> <rect x="154.953" y="0.016" style="fill:#CBCBCB;" width="202.068" height="66.503"/> <polygon style="fill:#B54644;" points="301.102,332.308 255.985,396.938 210.868,332.308 223.92,236.561 229.887,192.799 231.486,181.063 280.484,181.063 282.083,192.799 288.05,236.561 "/> <path style="fill:#D44842;" d="M307.181,143.443l-18.375,39.772c-4.678,10.125-13.323,16.362-22.678,16.362h-20.284 c-9.355,0-18-6.237-22.678-16.362l-18.375-39.772c-7.289-15.778,1.82-35.495,16.398-35.495h69.595 C305.362,107.948,314.471,127.665,307.181,143.443z"/> <g> <polygon style="fill:#FFFFFF;" points="221.309,107.927 206.604,147.361 193.288,182.989 192.264,185.77 113.763,56.935 113.544,56.495 117.86,50.569 120.714,46.766 154.953,0.236 155.099,0.016 186.339,50.862 195.922,66.519 "/> <polygon style="fill:#FFFFFF;" points="398.429,56.495 398.209,56.935 319.709,185.77 318.684,182.989 305.369,147.361 290.664,107.927 316.051,66.519 325.635,50.862 356.874,0.016 357.02,0.236 394.039,50.569 "/> </g> </g> <polygon style="fill:#4D6977;" points="336.316,172.308 375.603,226.592 301.346,332.31 255.986,396.909 210.628,332.31 136.37,226.592 175.657,172.308 88.67,120.146 112.373,57.96 112.812,56.715 113.179,55.838 116.251,47.716 117.495,49.912 117.86,50.569 119.25,52.984 193.069,182.625 193.288,182.989 223.723,236.543 223.869,236.835 255.986,293.241 288.104,236.835 288.25,236.543 318.684,182.989 318.904,182.625 392.649,52.91 394.039,50.569 394.405,49.912 395.722,47.716 398.795,55.838 399.16,56.715 399.599,57.96 423.303,120.146 "/> </g> <path style="fill:#436373;" d="M458.827,377.302h-67.636c-11.879,0-21.509-9.63-21.509-21.509v-73.599h110.654v73.599 C480.336,367.672,470.706,377.302,458.827,377.302z"/> <polygon style="opacity:0.1;fill:#040000;" points="399.6,57.903 399.153,56.729 398.8,55.806 395.709,47.699 394.441,49.926 394.084,50.555 357.025,0.239 357.025,0 255.986,0 255.986,414.216 512,414.216 512,138.7 "/> </g> </g>
</svg>